<svg width="42" height="42" xmlns="http://www.w3.org/2000/svg">
    <g fill="none" fill-rule="evenodd">
        <path d="M20.658 28.493c-4.141.028-7.517-2.676-7.744-7.718-.227-4.705 3.915-7.86 7.858-7.944 4.539-.113 7.262 5.07 7.262 5.07l11.715-4.31S34.927 1.114 21.88 1.114c-12.199 0-20.624 8.45-20.624 19.915 0 10.197 7.943 20.366 20.34 19.916 13.616-.507 18.268-12.48 18.268-12.48l-12.028-3.971c.029-.056-2.44 4-7.177 4" fill="#3DAB53"/>
        <path d="M20.658 28.493c-4.141.028-7.517-2.676-7.744-7.718-.227-4.705 3.915-7.86 7.858-7.944 4.539-.113 7.262 5.07 7.262 5.07l11.715-4.31S34.927 1.114 21.88 1.114c-12.199 0-20.624 8.45-20.624 19.915 0 10.197 7.943 20.366 20.34 19.916 13.616-.507 18.268-12.48 18.268-12.48l-12.028-3.971c.029-.056-2.44 4-7.177 4" stroke="#006838" stroke-width="1.413"/>
    </g>
</svg>